HIERARCHY
ROOT Hips
{
	OFFSET 8.335690 39.453602 32.377102 
	CHANNELS 6 Xposition Yposition Zposition Zrotation Xrotation Yrotation
	JOINT LeftHip
	{
		OFFSET 3.430000 0.000000 0.000000 
		CHANNELS 6 Xposition Yposition Zposition Zrotation Xrotation Yrotation
		JOINT LeftKnee
		{
			OFFSET 0.000000 -18.469999 0.000000 
			CHANNELS 6 Xposition Yposition Zposition Zrotation Xrotation Yrotation
			JOINT LeftAnkle
			{
				OFFSET 0.000000 -17.950001 0.000000 
				CHANNELS 6 Xposition Yposition Zposition Zrotation Xrotation Yrotation
				End Site
				{
					OFFSET 0.000000 -3.120000 0.000000 
				}
			}
		}
	}
	JOINT RightHip
	{
		OFFSET -3.430000 0.000000 0.000000 
		CHANNELS 6 Xposition Yposition Zposition Zrotation Xrotation Yrotation
		JOINT RightKnee
		{
			OFFSET 0.000000 -18.469999 0.000000 
			CHANNELS 6 Xposition Yposition Zposition Zrotation Xrotation Yrotation
			JOINT RightAnkle
			{
				OFFSET 0.000000 -17.950001 0.000000 
				CHANNELS 6 Xposition Yposition Zposition Zrotation Xrotation Yrotation
				End Site
				{
					OFFSET 0.000000 -3.120000 0.000000 
				}
			}
		}
	}
	JOINT Chest
	{
		OFFSET 0.000000 4.570000 0.000000 
		CHANNELS 6 Xposition Yposition Zposition Zrotation Xrotation Yrotation
		JOINT CS_BVH
		{
			OFFSET 0.000000 6.570000 0.000000 
			CHANNELS 6 Xposition Yposition Zposition Zrotation Xrotation Yrotation
			JOINT LeftCollar
			{
				OFFSET 1.060000 4.190000 1.760000 
				CHANNELS 6 Xposition Yposition Zposition Zrotation Xrotation Yrotation
				JOINT LeftShoulder
				{
					OFFSET 5.810000 0.000000 0.000000 
					CHANNELS 6 Xposition Yposition Zposition Zrotation Xrotation Yrotation
					JOINT LeftElbow
					{
						OFFSET 0.000000 -12.080000 0.000000 
						CHANNELS 6 Xposition Yposition Zposition Zrotation Xrotation Yrotation
						JOINT LeftWrist
						{
							OFFSET 0.000000 -9.820000 0.000000 
							CHANNELS 6 Xposition Yposition Zposition Zrotation Xrotation Yrotation
							End Site
							{
								OFFSET 0.000000 -7.370000 0.000000 
							}
						}
					}
				}
			}
			JOINT RightCollar
			{
				OFFSET -1.060000 4.190000 1.760000 
				CHANNELS 6 Xposition Yposition Zposition Zrotation Xrotation Yrotation
				JOINT RightShoulder
				{
					OFFSET -6.060000 0.000000 0.000000 
					CHANNELS 6 Xposition Yposition Zposition Zrotation Xrotation Yrotation
					JOINT RightElbow
					{
						OFFSET 0.000000 -11.080000 0.000000 
						CHANNELS 6 Xposition Yposition Zposition Zrotation Xrotation Yrotation
						JOINT RightWrist
						{
							OFFSET 0.000000 -9.820000 0.000000 
							CHANNELS 6 Xposition Yposition Zposition Zrotation Xrotation Yrotation
							End Site
							{
								OFFSET 0.000000 -7.140010 0.000000 
							}
						}
					}
				}
			}
			JOINT Neck
			{
				OFFSET 0.000000 4.050000 0.000000 
				CHANNELS 6 Xposition Yposition Zposition Zrotation Xrotation Yrotation
				JOINT Head
				{
					OFFSET 0.000000 5.190000 0.000000 
					CHANNELS 6 Xposition Yposition Zposition Zrotation Xrotation Yrotation
					End Site
					{
						OFFSET 0.000000 4.140010 0.000000 
					}
				}
			}
		}
	}
}
MOTION
Frames: 4
Frame Time: 0.033333
15.731100 42.987202 36.936604 -14.453003 -27.299501 35.035404 3.430000 -0.000000 0.000000 12.388100 -0.911737 11.250000 0.000000 -18.469999 -0.000000 0.608483 15.089100 7.974150 0.000000 -17.950001 -0.000000 -12.699900 19.452400 3.317840 -3.430000 0.000000 0.000000 24.342899 -69.004402 24.172001 0.000000 -18.469999 -0.000000 19.611200 43.974201 -1.631100 0.000000 -17.950001 -0.000000 16.950500 11.669400 -3.370400 -0.000000 4.570000 0.000000 -1.541660 6.539360 -5.242270 -0.000000 6.570000 0.000000 0.073847 13.152000 -10.460400 1.060000 4.190000 1.760000 7.312930 38.051399 -37.725201 5.810000 -0.000000 0.000000 -89.171600 -56.561798 -154.270004 -0.000000 -12.080000 -0.000000 -20.752899 -9.037280 -18.457300 -0.000000 -9.820000 0.000000 12.689100 -5.547900 -0.352893 -1.060000 4.190000 1.760000 27.695000 24.547501 -38.652599 -6.060000 0.000000 0.000000 -0.861233 77.813202 -22.577499 -0.000000 -11.080000 -0.000000 43.962399 -60.218601 35.218498 -0.000000 -9.820000 -0.000000 8.765610 26.150400 -2.764460 -0.000000 4.050000 0.000000 21.743299 10.297600 -36.086498 -0.000000 5.190000 0.000000 5.309940 -2.179040 11.419900 
15.685600 44.444897 37.397404 -10.997298 -24.388803 43.789700 3.430000 -0.000000 0.000000 8.219310 -0.837383 13.338500 0.000000 -18.469999 -0.000000 -0.395209 13.062400 22.580299 0.000000 -17.950001 -0.000000 -21.688700 29.237301 7.750360 -3.430000 0.000000 0.000000 24.070801 -70.616699 24.144400 0.000000 -18.469999 -0.000000 22.064301 48.264702 -2.128200 0.000000 -17.950001 -0.000000 14.423300 9.373320 -2.548080 -0.000000 4.570000 0.000000 -1.431710 6.498810 -5.631020 -0.000000 6.570000 0.000000 0.331996 13.075900 -11.196800 1.060000 4.190000 1.760000 10.965400 35.844398 -40.523499 5.810000 -0.000000 0.000000 -77.963402 -57.680099 -151.324997 -0.000000 -12.080000 -0.000000 -21.161400 -42.429798 -35.051601 -0.000000 -9.820000 0.000000 6.534010 -12.223400 -1.057080 -1.060000 4.190000 1.760000 29.139400 22.308701 -40.997299 -6.060000 0.000000 0.000000 4.979300 81.040398 -29.136101 -0.000000 -11.080000 -0.000000 40.907200 -57.680698 35.315899 -0.000000 -9.820000 -0.000000 13.265900 25.500601 -3.832930 -0.000000 4.050000 0.000000 21.062901 8.442720 -38.464500 -0.000000 5.190000 0.000000 5.323040 -3.956270 11.000200 
15.996700 45.492901 37.917599 -5.935309 -21.878901 52.367298 3.430000 -0.000000 0.000000 5.682420 -7.067680 17.494499 0.000000 -18.469999 -0.000000 -8.939690 34.127602 31.427500 0.000000 -17.950001 -0.000000 -23.399401 28.149200 8.207060 -3.430000 0.000000 0.000000 19.459200 -66.857903 20.421400 0.000000 -18.469999 -0.000000 21.683599 49.656799 -0.562093 0.000000 -17.950001 -0.000000 17.979401 12.619700 -3.727150 -0.000000 4.570000 0.000000 -1.859850 6.568230 -5.723950 -0.000000 6.570000 0.000000 0.765585 13.181800 -11.462700 1.060000 4.190000 1.760000 15.170400 34.056599 -42.729301 5.810000 -0.000000 0.000000 -80.477997 -51.524101 -154.895996 -0.000000 -12.080000 -0.000000 -17.601801 -54.394901 -29.228300 -0.000000 -9.820000 0.000000 1.172680 -14.107200 -1.825010 -1.060000 4.190000 1.760000 29.693300 22.652700 -42.233299 -6.060000 0.000000 0.000000 0.252633 81.533302 -23.292000 -0.000000 -11.080000 -0.000000 38.016701 -54.589802 37.883999 -0.000000 -9.820000 -0.000000 18.907700 25.280001 -5.219420 -0.000000 4.050000 0.000000 19.748100 8.014590 -40.110600 -0.000000 5.190000 0.000000 4.855830 -6.782800 8.979260 
16.582100 46.027401 38.535198 -1.680620 -20.048700 59.248299 3.430000 -0.000000 0.000000 5.032900 -8.312970 22.151100 0.000000 -18.469999 -0.000000 -20.269899 51.364201 32.142899 0.000000 -17.950001 -0.000000 -32.882401 33.043598 13.076100 -3.430000 0.000000 0.000000 16.402901 -59.630299 18.295799 0.000000 -18.469999 -0.000000 20.284000 47.833801 5.219930 0.000000 -17.950001 -0.000000 21.837799 16.179899 -5.212050 -0.000000 4.570000 0.000000 -2.032520 6.435520 -5.543880 -0.000000 6.570000 0.000000 1.562860 12.945900 -11.309500 1.060000 4.190000 1.760000 16.976601 33.349899 -43.518799 5.810000 -0.000000 0.000000 -80.626900 -47.803902 -153.798996 -0.000000 -12.080000 -0.000000 -13.979800 -59.237801 -18.310600 -0.000000 -9.820000 0.000000 -0.590352 -14.801600 -2.127260 -1.060000 4.190000 1.760000 30.084000 23.367599 -40.954201 -6.060000 0.000000 0.000000 -14.453900 81.360199 -8.084620 -0.000000 -11.080000 -0.000000 35.826599 -51.318001 41.583900 -0.000000 -9.820000 -0.000000 20.601999 24.553200 -5.504640 -0.000000 4.050000 0.000000 20.891199 10.048400 -41.748501 -0.000000 5.190000 0.000000 4.385830 -11.838300 6.102760 
